# xmcd
#
# Track frame offsets: 
#        150
#        18163
#        35816
#        56859
#        69034
#        89199
#        110301
#        133612
#        142736
#        172073
#
# Disc length: 2616 seconds
#
# Revision: 0
# Processed by: cddbd v1.5.2PL0 Copyright (c) Steve Scherf et al.
# Submitted via: ExactAudioCopyFreeDBPlugin 1.0
#
DISCID=890a360a
DTITLE=Terra Necrosis - Nominon
DYEAR=2007
DGENRE=Metal (Death)
TTITLE0=Release In Death
TTITLE1=Arcanum
TTITLE2=Black Chapel
TTITLE3=Ebola
TTITLE4=Among The Beasts and Ancient Slumber
TTITLE5=Life Extinct
TTITLE6=Tabula Rasa
TTITLE7=Hell Above
TTITLE8=Bane Appetite
TTITLE9=The Infernal Voyage
EXTD=
EXTT0=
EXTT1=
EXTT2=
EXTT3=
EXTT4=
EXTT5=
EXTT6=
EXTT7=
EXTT8=
EXTT9=
PLAYORDER=
